<svg width="207" height="25" viewBox="0 0 207 25" fill="none" xmlns="http://www.w3.org/2000/svg">
<path d="M152.48 9.79883C152.48 8.44336 152.869 7.34375 153.646 6.5C154.428 5.65625 155.465 5.23438 156.758 5.23438C157.984 5.23438 158.971 5.64453 159.717 6.46484C160.467 7.28125 160.842 8.33008 160.842 9.61133C160.842 10.9629 160.455 12.0586 159.682 12.8984C158.912 13.7344 157.893 14.1523 156.623 14.1523C155.389 14.1523 154.389 13.7441 153.623 12.9277C152.861 12.1113 152.48 11.0684 152.48 9.79883ZM154.238 9.70508C154.238 10.5801 154.453 11.2988 154.883 11.8613C155.316 12.4199 155.904 12.6992 156.646 12.6992C157.416 12.6992 158.014 12.4336 158.439 11.9023C158.869 11.3672 159.084 10.6426 159.084 9.72852C159.084 8.78711 158.877 8.04492 158.463 7.50195C158.049 6.95898 157.463 6.6875 156.705 6.6875C155.939 6.6875 155.336 6.97266 154.895 7.54297C154.457 8.10938 154.238 8.83008 154.238 9.70508ZM163.807 13.2324V16.8359H162.172V7.8418H163.807V8.81445H163.824C164.301 8.06836 164.977 7.69531 165.852 7.69531C166.629 7.69531 167.24 7.9668 167.686 8.50977C168.135 9.05273 168.359 9.79883 168.359 10.748C168.359 11.7715 168.104 12.5957 167.592 13.2207C167.084 13.8418 166.41 14.1523 165.57 14.1523C164.812 14.1523 164.23 13.8457 163.824 13.2324H163.807ZM163.783 11.3223C163.783 11.7676 163.912 12.1387 164.17 12.4355C164.428 12.7285 164.758 12.875 165.16 12.875C165.637 12.875 166.01 12.6895 166.279 12.3184C166.549 11.9473 166.684 11.4258 166.684 10.7539C166.684 9.5625 166.213 8.9668 165.271 8.9668C164.826 8.9668 164.467 9.13281 164.193 9.46484C163.92 9.79688 163.783 10.2148 163.783 10.7188V11.3223ZM175.057 11.3809H170.943C171.01 12.4277 171.604 12.9512 172.725 12.9512C173.408 12.9512 174.018 12.7715 174.553 12.4121V13.6543C173.982 13.9863 173.25 14.1523 172.355 14.1523C171.398 14.1523 170.652 13.875 170.117 13.3203C169.586 12.7656 169.32 11.9902 169.32 10.9941C169.32 10.0176 169.605 9.22461 170.176 8.61523C170.75 8.00195 171.467 7.69531 172.326 7.69531C173.186 7.69531 173.855 7.95898 174.336 8.48633C174.816 9.01367 175.057 9.73828 175.057 10.6602V11.3809ZM173.516 10.3086C173.516 9.33203 173.113 8.84375 172.309 8.84375C171.973 8.84375 171.676 8.97656 171.418 9.24219C171.164 9.50781 171.006 9.86328 170.943 10.3086H173.516ZM181.994 14H180.365V10.5488C180.365 9.49414 179.984 8.9668 179.223 8.9668C178.84 8.9668 178.527 9.11133 178.285 9.40039C178.047 9.68555 177.928 10.0488 177.928 10.4902V14H176.293V7.8418H177.928V8.83203H177.945C178.398 8.07422 179.064 7.69531 179.943 7.69531C181.311 7.69531 181.994 8.54102 181.994 10.2324V14ZM195.295 14H193.473L192.775 11.9375H189.535L188.855 14H187.033L190.227 5.375H192.154L195.295 14ZM192.359 10.6133L191.305 7.49023C191.262 7.36523 191.217 7.12695 191.17 6.77539H191.129C191.098 7.03711 191.049 7.27148 190.982 7.47852L189.922 10.6133H192.359ZM198.102 10.9414V14H196.432V5.375H199.279C201.381 5.375 202.432 6.27539 202.432 8.07617C202.432 8.94727 202.113 9.64844 201.477 10.1797C200.844 10.7109 200.047 10.9648 199.086 10.9414H198.102ZM198.102 6.70508V9.63477H198.951C200.104 9.63477 200.68 9.13672 200.68 8.14062C200.68 7.18359 200.115 6.70508 198.986 6.70508H198.102ZM205.479 5.375V14H203.809V5.375H205.479Z" fill="#221E1F"/>
<path d="M63.9926 8.19141V6.1877H68.8937V4.92111C68.8937 4.49546 68.8216 3.85178 68.6673 3.47803H71.7664V6.1877H76.6676V8.19141H74.1759C74.8554 8.99077 75.2673 9.98744 75.2673 11.0672C75.2673 13.6211 72.9815 15.7079 70.3352 15.7079C67.689 15.7079 65.4033 13.6108 65.4033 11.0672C65.4033 9.98744 65.8151 8.99077 66.4946 8.19141H64.0132H63.9926ZM68.9555 24.2003C68.5849 24.2003 68.2553 23.8681 68.2553 23.4943V19.6738C68.2553 18.7082 68.1112 17.94 67.9052 17.5558H71.0354V22.1966H81.4761V24.2003H68.9658H68.9555ZM70.325 8.41981C69.0585 8.41981 68.1009 9.593 68.1009 11.0775C68.1009 12.5621 69.0585 13.7353 70.325 13.7353C71.5914 13.7353 72.549 12.5621 72.549 11.0775C72.549 9.593 71.6017 8.41981 70.325 8.41981ZM81.2496 11.1814V15.874C81.2496 16.8187 81.1775 17.6493 81.0745 18.241H78.4695V5.74128C78.4695 4.755 78.3254 4.00751 78.1194 3.60262H81.2496V9.18804H84.0811V11.1918H81.2496V11.1814Z" fill="#221E1F"/>
<path d="M97.7965 9.47954V6.28189H87.2016V4.28857H100.566V9.01236C100.566 9.84288 100.412 10.7669 100.216 11.4832H103.192V13.4869H94.965V16.9233H100.35V21.9482C100.35 22.8929 100.289 23.7235 100.175 24.3049H97.5699V18.9374H87.2016V16.9233H92.1743V13.4869H84.5759V11.4832H97.6116C97.7244 10.8811 97.7965 10.1336 97.7965 9.47954Z" fill="#221E1F"/>
<path d="M115.146 18.4695V21.5633C115.146 22.425 115.084 23.2555 114.991 23.7746H112.284V18.4695H103.882V16.4243H123.548V18.4695H115.146ZM109.288 12.3753H121.19V14.4205H107.166C106.785 14.4205 106.446 14.0883 106.446 13.7042V6.92482C106.446 5.92816 106.291 5.13914 106.106 4.74463H121.087V6.81062H109.288V8.56516H120.923V10.4962H109.288V12.365V12.3753Z" fill="#221E1F"/>
<path d="M133.145 10.5697C133.145 13.9852 135.461 17.7228 138.725 18.8128L137.304 20.4116C135.173 19.7264 132.866 17.9408 131.62 15.7917C130.354 17.9304 128.048 19.7264 125.916 20.4116L124.505 18.8128C127.76 17.7228 130.066 13.9852 130.066 10.5697V7.90149H125.916V5.72129H137.314V7.90149H133.154V10.5697H133.145ZM142.71 13.4662V21.6887C142.71 22.7268 142.638 23.63 142.524 24.2737H139.693V6.57261C139.693 5.51366 139.529 4.69349 139.302 4.24707H142.71V11.2963H145.789V13.4662H142.71Z" fill="#221E1F"/>
<path d="M27.6151 8.91699C27.7593 8.91699 28.0166 9.04161 28.3667 9.42571C30.179 11.4087 32.2074 12.9763 33.9166 13.9211C34.1637 14.0561 34.2975 14.1599 34.2975 14.2844C34.2975 14.3779 34.2873 14.4817 34.0711 14.4817C33.6901 14.4817 31.5278 14.0561 30.9615 13.7861C30.3952 13.5162 29.1596 12.5091 27.6872 9.9552C27.5224 9.66451 27.3474 9.41537 27.3474 9.18691C27.3474 8.95853 27.5533 8.91699 27.6151 8.91699Z" fill="#659AD2"/>
<path d="M32.4953 1.61957C32.4953 1.61957 32.8557 2.33593 29.3754 2.82387C29.7564 1.74416 30.0035 1.0278 30.0035 1.0278C30.2301 0.384129 29.7255 0 29.3652 0C29.0047 0 28.7474 0.28031 28.5929 0.633294L27.5633 3.02113C26.2041 3.11457 25.195 3.06265 24.742 3.02113C24.1139 2.95883 23.9492 3.31182 23.9492 3.66481C23.9492 4.28771 25.0406 4.93139 25.7407 4.85872C26.1835 4.81719 26.4409 4.79643 26.8013 4.76529L22.9504 13.6314C22.8063 13.9636 22.6827 14.4931 23.3416 14.4931C24.0007 14.4931 25.4936 13.8806 25.7407 13.1746C25.8437 12.8735 26.616 10.6933 27.4705 8.24321C27.8927 8.16016 29.4475 7.92137 29.88 7.92137C30.2918 7.92137 30.4978 8.10825 30.4978 8.32627C30.4978 8.83496 29.2828 10.2988 26.9248 12.1053C26.6675 12.3025 26.8837 12.4582 27.0176 12.4582C27.3779 12.4582 29.0047 11.337 29.8079 10.7245C30.6934 10.0497 32.2276 8.3055 32.2276 7.07006C32.2276 6.58211 32.0114 6.13569 31.0537 6.13569C30.0962 6.13569 28.4693 6.34333 28.1089 6.39524C28.3355 5.74118 28.562 5.0975 28.7782 4.49535C30.6007 4.23581 31.6819 4.08008 32.3202 3.94511C33.2057 3.75824 33.9059 3.24952 33.9059 2.72005C33.9059 1.59881 32.485 1.60919 32.485 1.60919L32.4953 1.61957Z" fill="#632C00"/>
<path d="M1.53381 7.17578H0.432083V6.0753H1.53381V4.60107H3.0371V6.0753H4.45803V7.17578H3.0371V9.88549C3.0371 10.3838 3.17096 10.8406 3.73727 10.8406C4.00498 10.8406 4.26239 10.7887 4.41684 10.6849L4.45803 11.8787C4.14913 11.9722 3.79905 12.0137 3.346 12.0137C2.17219 12.0137 1.52351 11.2766 1.52351 10.1346V7.18616L1.53381 7.17578Z" fill="#632C00"/>
<path d="M5.60176 6.06368H6.93001V7.38217H6.95061C7.01239 6.84232 7.63018 5.92871 8.52598 5.92871C8.67012 5.92871 8.82454 5.92871 8.98934 5.97024V7.49637C8.85545 7.41332 8.58776 7.37179 8.32005 7.37179C7.10505 7.37179 7.10505 8.90833 7.10505 9.73884V11.8671H5.60176V6.06368Z" fill="#632C00"/>
<path d="M15.1974 11.8665H13.7765V11.0776H13.7559C13.3029 11.6382 12.6542 12.0015 11.8613 12.0015C10.5022 12.0015 9.90498 11.036 9.90498 9.72792V6.06312H11.398V9.15689C11.398 9.8733 11.4083 10.8284 12.3659 10.8284C13.447 10.8284 13.6838 9.64484 13.6838 8.8974V6.05273H15.1768V11.8562L15.1974 11.8665Z" fill="#632C00"/>
<path d="M21.1382 11.5457C20.5925 11.8467 19.9645 12.0129 19.1613 12.0129C17.2668 12.0129 16.1547 10.9124 16.1547 9.0021C16.1547 7.32024 17.0402 5.93945 18.8215 5.93945C20.9529 5.93945 21.5604 7.41369 21.5604 9.44851H17.5756C17.6477 10.3829 18.2964 10.9124 19.2231 10.9124C19.9541 10.9124 20.5719 10.6424 21.1382 10.3206V11.5457ZM20.1292 8.39996C20.088 7.66285 19.7482 7.03993 18.9142 7.03993C18.0802 7.03993 17.6477 7.6317 17.5859 8.39996H20.1292Z" fill="#632C00"/>
<path d="M33.2888 6.15596H34.617V7.47446H34.6376C34.7096 6.9346 35.3172 6.021 36.213 6.021C36.3571 6.021 36.5115 6.021 36.6763 6.06253V7.58866C36.5424 7.5056 36.2747 7.46407 36.007 7.46407C34.792 7.46407 34.792 8.99019 34.792 9.83113V11.9594H33.299V6.15596H33.2888Z" fill="#632C00"/>
<path d="M37.541 3.7373H39.0442V5.18038H37.541V3.7373ZM37.541 6.15628H39.0442V11.9598H37.541V6.15628Z" fill="#632C00"/>
<path d="M44.9751 11.6272C44.4294 11.9283 43.8014 12.0944 42.9982 12.0944C41.0933 12.0944 39.9917 10.9835 39.9917 9.08369C39.9917 7.40178 40.8771 6.021 42.6584 6.021C44.7898 6.021 45.3973 7.49522 45.3973 9.5301H41.4229C41.4846 10.4645 42.1333 10.9939 43.0703 10.9939C43.8014 10.9939 44.4192 10.7239 44.9855 10.4125V11.6376M43.9661 8.4815C43.9249 7.74439 43.5851 7.12148 42.7511 7.12148C41.9171 7.12148 41.4846 7.71325 41.4229 8.4815H43.9763H43.9661Z" fill="#632C00"/>
<path d="M46.2832 6.15596H47.7041V6.94498H47.7247C48.1983 6.28054 48.8367 6.021 49.609 6.021C50.9784 6.021 51.5653 6.98651 51.5653 8.30501V11.9594H50.062V8.86566C50.062 8.14928 50.0517 7.19415 49.0942 7.19415C48.013 7.19415 47.7762 8.37768 47.7762 9.12514V11.9594H46.2729V6.15596H46.2832Z" fill="#632C00"/>
<path d="M56.6821 11.3056H56.6615C56.2187 11.8662 55.6009 12.0946 54.8905 12.0946C53.1298 12.0946 52.4812 10.6307 52.4812 9.04234C52.4812 7.4539 53.1298 6.0212 54.8905 6.0212C55.6422 6.0212 56.1672 6.28075 56.6101 6.83099H56.6306V3.50879H58.1339V11.9596H56.6821V11.3056ZM55.3127 10.9215C56.3115 10.9215 56.6306 9.86251 56.6306 9.04234C56.6306 8.22216 56.2496 7.19436 55.2921 7.19436C54.3345 7.19436 54.0565 8.26369 54.0565 9.04234C54.0565 9.82097 54.3345 10.9215 55.3127 10.9215Z" fill="#632C00"/>
</svg>
